<svg width="24" height="24" viewBox="0 0 24 24" fill="none" xmlns="http://www.w3.org/2000/svg">
<path d="M5 20C4.45 20 3.97917 19.8042 3.5875 19.4125C3.19583 19.0208 3 18.55 3 18C3 17.45 3.19583 16.9792 3.5875 16.5875C3.97917 16.1958 4.45 16 5 16H19C19.55 16 20.0208 16.1958 20.4125 16.5875C20.8042 16.9792 21 17.45 21 18C21 18.55 20.8042 19.0208 20.4125 19.4125C20.0208 19.8042 19.55 20 19 20H5ZM5 8C4.45 8 3.97917 7.80417 3.5875 7.4125C3.19583 7.02083 3 6.55 3 6C3 5.45 3.19583 4.97917 3.5875 4.5875C3.97917 4.19583 4.45 4 5 4H19C19.55 4 20.0208 4.19583 20.4125 4.5875C20.8042 4.97917 21 5.45 21 6C21 6.55 20.8042 7.02083 20.4125 7.4125C20.0208 7.80417 19.55 8 19 8H5ZM5 14C4.45 14 3.97917 13.8042 3.5875 13.4125C3.19583 13.0208 3 12.55 3 12C3 11.45 3.19583 10.9792 3.5875 10.5875C3.97917 10.1958 4.45 10 5 10H19C19.55 10 20.0208 10.1958 20.4125 10.5875C20.8042 10.9792 21 11.45 21 12C21 12.55 20.8042 13.0208 20.4125 13.4125C20.0208 13.8042 19.55 14 19 14H5ZM6 7C6.28333 7 6.52083 6.90417 6.7125 6.7125C6.90417 6.52083 7 6.28333 7 6C7 5.71667 6.90417 5.47917 6.7125 5.2875C6.52083 5.09583 6.28333 5 6 5C5.71667 5 5.47917 5.09583 5.2875 5.2875C5.09583 5.47917 5 5.71667 5 6C5 6.28333 5.09583 6.52083 5.2875 6.7125C5.47917 6.90417 5.71667 7 6 7ZM6 13C6.28333 13 6.52083 12.9042 6.7125 12.7125C6.90417 12.5208 7 12.2833 7 12C7 11.7167 6.90417 11.4792 6.7125 11.2875C6.52083 11.0958 6.28333 11 6 11C5.71667 11 5.47917 11.0958 5.2875 11.2875C5.09583 11.4792 5 11.7167 5 12C5 12.2833 5.09583 12.5208 5.2875 12.7125C5.47917 12.9042 5.71667 13 6 13ZM6 19C6.28333 19 6.52083 18.9042 6.7125 18.7125C6.90417 18.5208 7 18.2833 7 18C7 17.7167 6.90417 17.4792 6.7125 17.2875C6.52083 17.0958 6.28333 17 6 17C5.71667 17 5.47917 17.0958 5.2875 17.2875C5.09583 17.4792 5 17.7167 5 18C5 18.2833 5.09583 18.5208 5.2875 18.7125C5.47917 18.9042 5.71667 19 6 19Z" fill="white"/>
</svg>
