<svg width="48" height="48" viewBox="0 0 48 48" fill="none" xmlns="http://www.w3.org/2000/svg">
<g clip-path="url(#clip0_25_2059)">
<path d="M6 24C6 26.3638 6.46558 28.7044 7.37017 30.8883C8.27475 33.0722 9.60062 35.0565 11.2721 36.7279C12.9435 38.3994 14.9278 39.7252 17.1117 40.6298C19.2956 41.5344 21.6362 42 24 42C26.3638 42 28.7044 41.5344 30.8883 40.6298C33.0722 39.7252 35.0565 38.3994 36.7279 36.7279C38.3994 35.0565 39.7252 33.0722 40.6298 30.8883C41.5344 28.7044 42 26.3638 42 24C42 21.6362 41.5344 19.2956 40.6298 17.1117C39.7252 14.9278 38.3994 12.9435 36.7279 11.2721C35.0565 9.60062 33.0722 8.27475 30.8883 7.37017C28.7044 6.46558 26.3638 6 24 6C21.6362 6 19.2956 6.46558 17.1117 7.37017C14.9278 8.27475 12.9435 9.60062 11.2721 11.2721C9.60062 12.9435 8.27475 14.9278 7.37017 17.1117C6.46558 19.2956 6 21.6362 6 24Z" stroke="white" stroke-width="4" stroke-linecap="round" stroke-linejoin="round"/>
<path d="M18 24L22 28L30 20" stroke="white" stroke-width="4" stroke-linecap="round" stroke-linejoin="round"/>
</g>
<defs>
<clipPath id="clip0_25_2059">
<rect width="48" height="48" fill="white"/>
</clipPath>
</defs>
</svg>
