<svg width="110" height="110" viewBox="0 0 110 110" fill="none" xmlns="http://www.w3.org/2000/svg">
<path d="M22.9167 100.833C20.3958 100.833 18.2378 99.9358 16.4427 98.1406C14.6476 96.3455 13.75 94.1875 13.75 91.6667V73.3333C13.75 70.8125 14.6476 68.6545 16.4427 66.8594C18.2378 65.0642 20.3958 64.1667 22.9167 64.1667H87.0833C89.6042 64.1667 91.7622 65.0642 93.5573 66.8594C95.3524 68.6545 96.25 70.8125 96.25 73.3333V91.6667C96.25 94.1875 95.3524 96.3455 93.5573 98.1406C91.7622 99.9358 89.6042 100.833 87.0833 100.833H22.9167ZM22.9167 91.6667H87.0833V73.3333H22.9167V91.6667ZM29.9063 57.2917L6.875 44.2292L34.375 39.6458L26.9271 12.7188L49.7292 28.875L63.4792 4.58334L68.0625 32.0833L94.9896 24.6354L78.8333 47.4375L96.25 57.2917H77.6875L65.5417 50.4167L72.6458 40.3333L60.7292 43.6563L58.6667 31.5104L52.7083 42.1667L42.625 35.0625L45.9479 46.9792L33.8021 49.0417L47.5521 57.2917H29.9063Z" fill="#FFB800"/>
</svg>
