<svg width="40" height="40" viewBox="0 0 40 40" fill="none" xmlns="http://www.w3.org/2000/svg">
<g clip-path="url(#clip0_1_1130)">
<path d="M17.3749 2.35666C18.143 1.93312 19.0005 1.69764 19.8771 1.66954C20.7538 1.64144 21.6246 1.82151 22.4183 2.195L22.7349 2.35666L34.0266 9.015L34.1866 9.12L34.3399 9.24833L34.5183 9.37333C35.0975 9.80767 35.583 10.3546 35.9456 10.9812C36.3082 11.6079 36.5404 12.3014 36.6283 13.02L36.6583 13.3567L36.6666 13.6967V25.8367C36.6666 27.68 35.7166 29.385 34.2432 30.325L33.9599 30.4917L22.6216 37.6617C21.0916 38.5017 19.2566 38.5533 17.6149 37.775L17.2883 37.6083L6.12992 30.5467C5.33572 30.1124 4.66404 29.4847 4.17718 28.7216C3.69032 27.9585 3.40405 27.0849 3.34492 26.1817L3.33325 25.8367V13.695C3.33325 11.8517 4.28325 10.1483 5.79325 9.18666L17.3749 2.35666ZM19.9999 18.3333H18.3333L18.1383 18.345C17.7332 18.3932 17.3598 18.5883 17.0889 18.8933C16.8181 19.1983 16.6684 19.5921 16.6684 20C16.6684 20.4079 16.8181 20.8017 17.0889 21.1067C17.3598 21.4117 17.7332 21.6068 18.1383 21.655L18.3333 21.6667V26.6667L18.3449 26.8617C18.3888 27.2337 18.5567 27.5801 18.8216 27.845C19.0865 28.1099 19.4329 28.2778 19.8049 28.3217L19.9999 28.3333H21.6666L21.8616 28.3217C22.2336 28.2778 22.58 28.1099 22.8449 27.845C23.1098 27.5801 23.2777 27.2337 23.3216 26.8617L23.3333 26.6667L23.3216 26.4717C23.2817 26.1316 23.1381 25.8121 22.9103 25.5566C22.6825 25.301 22.3815 25.1218 22.0483 25.0433L21.8616 25.01L21.6666 25V20L21.6549 19.805C21.611 19.433 21.4431 19.0866 21.1782 18.8217C20.9133 18.5568 20.5669 18.3889 20.1949 18.345L19.9999 18.3333ZM20.0166 13.3333L19.8049 13.345C19.3998 13.3932 19.0265 13.5883 18.7556 13.8933C18.4847 14.1983 18.3351 14.5921 18.3351 15C18.3351 15.4079 18.4847 15.8017 18.7556 16.1067C19.0265 16.4117 19.3998 16.6068 19.8049 16.655L19.9999 16.6667L20.2116 16.655C20.6167 16.6068 20.99 16.4117 21.2609 16.1067C21.5318 15.8017 21.6814 15.4079 21.6814 15C21.6814 14.5921 21.5318 14.1983 21.2609 13.8933C20.99 13.5883 20.6167 13.3932 20.2116 13.345L20.0166 13.3333Z" fill="#00F0FF"/>
</g>
<defs>
<clipPath id="clip0_1_1130">
<rect width="40" height="40" fill="white"/>
</clipPath>
</defs>
</svg>
