<svg xmlns="http://www.w3.org/2000/svg" width="50" height="50" viewBox="0 0 50 50" fill="none">
  <path d="M8.3333 39.5834C7.18746 39.5834 6.20656 39.1754 5.39059 38.3594C4.57461 37.5434 4.16663 36.5625 4.16663 35.4167V14.5834C4.16663 13.4375 4.57461 12.4566 5.39059 11.6406C6.20656 10.8247 7.18746 10.4167 8.3333 10.4167H41.6667C42.8125 10.4167 43.7934 10.8247 44.6094 11.6406C45.4253 12.4566 45.8333 13.4375 45.8333 14.5834V35.4167C45.8333 36.5625 45.4253 37.5434 44.6094 38.3594C43.7934 39.1754 42.8125 39.5834 41.6667 39.5834H8.3333ZM8.3333 35.4167H41.6667V14.5834H8.3333V35.4167ZM16.6666 33.3334H33.3333V29.1667H16.6666V33.3334ZM10.4166 27.0834H14.5833V22.9167H10.4166V27.0834ZM16.6666 27.0834H20.8333V22.9167H16.6666V27.0834ZM22.9166 27.0834H27.0833V22.9167H22.9166V27.0834ZM29.1666 27.0834H33.3333V22.9167H29.1666V27.0834ZM35.4167 27.0834H39.5833V22.9167H35.4167V27.0834ZM10.4166 20.8334H14.5833V16.6667H10.4166V20.8334ZM16.6666 20.8334H20.8333V16.6667H16.6666V20.8334ZM22.9166 20.8334H27.0833V16.6667H22.9166V20.8334ZM29.1666 20.8334H33.3333V16.6667H29.1666V20.8334ZM35.4167 20.8334H39.5833V16.6667H35.4167V20.8334Z" fill="#D3D6E3"/>
</svg>