<svg width="110" height="110" viewBox="0 0 110 110" fill="none" xmlns="http://www.w3.org/2000/svg">
<path d="M86.6252 96.25L61.5314 71.1562L71.1564 61.5312L96.2502 86.625L86.6252 96.25ZM23.3752 96.25L13.7502 86.625L45.3752 55L37.5835 47.2083L34.3752 50.4167L28.5314 44.5729V53.9687L25.3231 57.1771L11.4585 43.3125L14.6668 40.1042H24.0627L18.3335 34.375L34.6043 18.1042C36.1321 16.5764 37.7745 15.4687 39.5314 14.7812C41.2884 14.0937 43.0835 13.75 44.9168 13.75C46.7502 13.75 48.5453 14.0937 50.3022 14.7812C52.0592 15.4687 53.7016 16.5764 55.2293 18.1042L44.6877 28.6458L50.4168 34.375L47.2085 37.5833L55.0002 45.375L65.3127 35.0625C65.0071 34.2222 64.7588 33.3437 64.5679 32.4271C64.3769 31.5104 64.2814 30.5937 64.2814 29.6771C64.2814 25.1701 65.8283 21.3698 68.922 18.276C72.0158 15.1823 75.8161 13.6354 80.3231 13.6354C81.4689 13.6354 82.5575 13.75 83.5887 13.9792C84.62 14.2083 85.6703 14.5521 86.7397 15.0104L75.396 26.3542L83.646 34.6042L94.9897 23.2604C95.5245 24.3299 95.8873 25.3802 96.0783 26.4114C96.2693 27.4427 96.3647 28.5312 96.3647 29.6771C96.3647 34.184 94.8179 37.9844 91.7241 41.0781C88.6304 44.1719 84.83 45.7187 80.3231 45.7187C79.4064 45.7187 78.4897 45.6424 77.5731 45.4896C76.6564 45.3368 75.7779 45.0694 74.9377 44.6875L23.3752 96.25Z" fill="#B0B0B0"/>
</svg>
