<svg width="24" height="24" viewBox="0 0 24 24" fill="none" xmlns="http://www.w3.org/2000/svg">
<g clip-path="url(#clip0_19_578)">
<path d="M19.9331 13.041C19.7442 14.481 19.167 15.8423 18.2632 16.9792C17.3595 18.116 16.1633 18.9854 14.803 19.494C13.4427 20.0027 11.9696 20.1315 10.5417 19.8666C9.1138 19.6017 7.78492 18.9531 6.69761 17.9903C5.6103 17.0276 4.80557 15.787 4.36973 14.4016C3.93389 13.0163 3.88338 11.5385 4.22362 10.1266C4.56385 8.71472 5.282 7.4221 6.30104 6.38736C7.32007 5.35261 8.60156 4.61479 10.0081 4.253C13.9071 3.253 17.9431 5.26 19.4331 9" stroke="white" stroke-width="2" stroke-linecap="round" stroke-linejoin="round"/>
<path d="M20 4V9H15" stroke="white" stroke-width="2" stroke-linecap="round" stroke-linejoin="round"/>
</g>
<defs>
<clipPath id="clip0_19_578">
<rect width="24" height="24" fill="white"/>
</clipPath>
</defs>
</svg>
