<svg width="24" height="24" viewBox="0 0 24 24" fill="none" xmlns="http://www.w3.org/2000/svg">
<path d="M6.8249 12.9998L7.6999 13.9248C7.88324 14.1081 7.9749 14.3373 7.9749 14.6123C7.9749 14.8873 7.88324 15.1165 7.6999 15.2998C7.4999 15.4998 7.2624 15.5998 6.9874 15.5998C6.7124 15.5998 6.48324 15.4998 6.2999 15.2998L3.6999 12.7248C3.5999 12.6248 3.5249 12.5123 3.4749 12.3873C3.4249 12.2623 3.3999 12.1331 3.3999 11.9998C3.3999 11.8665 3.4249 11.7415 3.4749 11.6248C3.5249 11.5081 3.5999 11.3998 3.6999 11.2998L6.2999 8.6998C6.48324 8.51647 6.7124 8.4248 6.9874 8.4248C7.2624 8.4248 7.4999 8.51647 7.6999 8.6998C7.8999 8.8998 7.9999 9.1373 7.9999 9.4123C7.9999 9.6873 7.8999 9.9248 7.6999 10.1248L6.8249 10.9998H17.1749L16.2749 10.0998C16.0916 9.91647 15.9999 9.6873 15.9999 9.4123C15.9999 9.1373 16.0999 8.8998 16.2999 8.6998C16.4832 8.51647 16.7124 8.4248 16.9874 8.4248C17.2624 8.4248 17.4999 8.51647 17.6999 8.6998L20.2749 11.2998C20.3749 11.3998 20.4499 11.5081 20.4999 11.6248C20.5499 11.7415 20.5749 11.8665 20.5749 11.9998C20.5749 12.1331 20.5499 12.2623 20.4999 12.3873C20.4499 12.5123 20.3749 12.6248 20.2749 12.7248L17.6749 15.3248C17.4916 15.5081 17.2624 15.5998 16.9874 15.5998C16.7124 15.5998 16.4749 15.4998 16.2749 15.2998C16.0916 15.1165 15.9999 14.8873 15.9999 14.6123C15.9999 14.3373 16.0916 14.1081 16.2749 13.9248L17.1749 12.9998H6.8249Z" fill="black"/>
</svg>
