<svg width="48" height="48" viewBox="0 0 48 48" fill="none" xmlns="http://www.w3.org/2000/svg">
<g clip-path="url(#clip0_247_1738)">
<path d="M24.0004 3.34003C25.9104 3.34003 27.6904 4.27403 28.7804 5.83403L28.9904 6.15403L45.2184 33.25C45.7115 34.1042 45.9799 35.0695 45.9982 36.0557C46.0166 37.0418 45.7844 38.0165 45.3233 38.8884C44.8623 39.7603 44.1875 40.501 43.3622 41.041C42.5368 41.581 41.588 41.9027 40.6044 41.976L40.2144 41.992H7.76437C6.77978 41.9809 5.81405 41.7206 4.95732 41.2352C4.10058 40.7499 3.38079 40.0554 2.86511 39.2166C2.34943 38.3778 2.05469 37.422 2.0084 36.4384C1.9621 35.4548 2.16577 34.4756 2.60037 33.592L2.79837 33.222L19.0184 6.14603C19.5377 5.28965 20.269 4.58156 21.1416 4.09006C22.0143 3.59857 22.9988 3.34025 24.0004 3.34003ZM24.0204 30L23.7664 30.014C23.2803 30.0718 22.8323 30.3059 22.5072 30.672C22.1821 31.038 22.0026 31.5105 22.0026 32C22.0026 32.4896 22.1821 32.9621 22.5072 33.3281C22.8323 33.6941 23.2803 33.9282 23.7664 33.986L24.0004 34L24.2544 33.986C24.7405 33.9282 25.1885 33.6941 25.5135 33.3281C25.8386 32.9621 26.0181 32.4896 26.0181 32C26.0181 31.5105 25.8386 31.038 25.5135 30.672C25.1885 30.3059 24.7405 30.0718 24.2544 30.014L24.0204 30ZM24.0004 16C23.5105 16.0001 23.0377 16.1799 22.6716 16.5055C22.3056 16.831 22.0717 17.2795 22.0144 17.766L22.0004 18V26L22.0144 26.234C22.0722 26.7201 22.3063 27.1681 22.6723 27.4932C23.0383 27.8183 23.5108 27.9978 24.0004 27.9978C24.4899 27.9978 24.9624 27.8183 25.3284 27.4932C25.6945 27.1681 25.9286 26.7201 25.9864 26.234L26.0004 26V18L25.9864 17.766C25.9291 17.2795 25.6952 16.831 25.3291 16.5055C24.963 16.1799 24.4902 16.0001 24.0004 16Z" fill="#FF0000"/>
</g>
<defs>
<clipPath id="clip0_247_1738">
<rect width="48" height="48" fill="white"/>
</clipPath>
</defs>
</svg>
