<svg width="48" height="48" viewBox="0 0 48 48" fill="none" xmlns="http://www.w3.org/2000/svg">
<g clip-path="url(#clip0_247_1463)">
<path d="M13.9997 20H19.9997V14L12.9997 7C15.239 5.93055 17.7547 5.58161 20.2005 6.00124C22.6463 6.42088 24.9019 7.58844 26.6566 9.34315C28.4113 11.0979 29.5788 13.3534 29.9985 15.7992C30.4181 18.245 30.0692 20.7607 28.9997 23L40.9997 35C41.7954 35.7956 42.2423 36.8748 42.2423 38C42.2423 39.1252 41.7954 40.2043 40.9997 41C40.2041 41.7956 39.1249 42.2426 37.9997 42.2426C36.8745 42.2426 35.7954 41.7956 34.9997 41L22.9997 29C20.7604 30.0695 18.2447 30.4184 15.7989 29.9988C13.3531 29.5791 11.0976 28.4116 9.34285 26.6569C7.58814 24.9021 6.42058 22.6466 6.00095 20.2008C5.58132 17.755 5.93026 15.2393 6.99971 13L13.9997 20Z" stroke="#FFB800" stroke-width="4" stroke-linecap="round" stroke-linejoin="round"/>
</g>
<defs>
<clipPath id="clip0_247_1463">
<rect width="48" height="48" fill="white"/>
</clipPath>
</defs>
</svg>
