<svg width="554" height="198" viewBox="0 0 554 198" fill="none" xmlns="http://www.w3.org/2000/svg">
<rect x="1.58398" y="1.58398" width="550.832" height="194.632" rx="12.376" fill="#2B2B2B" fill-opacity="0.6" stroke="#4A4A4A" stroke-width="2.83204"/>
<rect x="8.47998" y="8.48114" width="30.688" height="31.784" rx="5.48" fill="#C2C2C2"/>
<rect x="8.47998" y="45.7452" width="66.856" height="31.784" rx="5.48" fill="#C2C2C2"/>
<rect x="8.47998" y="83.0093" width="66.856" height="31.784" rx="5.48" fill="#C2C2C2"/>
<rect x="8.47998" y="120.273" width="103.024" height="31.784" rx="5.48" fill="#C2C2C2"/>
<rect x="8.47998" y="157.537" width="30.688" height="31.784" rx="5.48" fill="#C2C2C2"/>
<rect x="297.824" y="8.48114" width="30.688" height="31.784" rx="5.48" fill="#C2C2C2"/>
<rect x="297.824" y="45.7452" width="30.688" height="31.784" rx="5.48" fill="#C2C2C2"/>
<rect x="297.824" y="83.0093" width="30.688" height="31.784" rx="5.48" fill="#C2C2C2"/>
<rect x="297.824" y="120.273" width="30.688" height="31.784" rx="5.48" fill="#C2C2C2"/>
<rect x="153.152" y="8.48114" width="30.688" height="31.784" rx="5.48" fill="#C2C2C2"/>
<rect x="153.152" y="45.7452" width="30.688" height="31.784" rx="5.48" fill="#C2C2C2"/>
<rect x="153.152" y="83.0093" width="30.688" height="31.784" rx="5.48" fill="#C2C2C2"/>
<rect x="153.152" y="120.273" width="30.688" height="31.784" rx="5.48" fill="#C2C2C2"/>
<rect x="153.152" y="157.537" width="211.528" height="31.784" rx="5.48" fill="#C2C2C2"/>
<rect x="442.496" y="8.48114" width="30.688" height="31.784" rx="5.48" fill="#C2C2C2"/>
<rect x="442.496" y="45.7452" width="30.688" height="31.784" rx="5.48" fill="#C2C2C2"/>
<rect x="442.496" y="83.0093" width="30.688" height="31.784" rx="5.48" fill="#C2C2C2"/>
<rect x="442.496" y="157.537" width="30.688" height="31.784" rx="5.48" fill="#C2C2C2"/>
<rect x="44.648" y="8.48114" width="30.688" height="31.784" rx="5.48" fill="#C2C2C2"/>
<rect x="44.648" y="157.537" width="30.688" height="31.784" rx="5.48" fill="#C2C2C2"/>
<rect x="333.992" y="8.48114" width="30.688" height="31.784" rx="5.48" fill="#C2C2C2"/>
<rect x="333.992" y="45.7452" width="30.688" height="31.784" rx="5.48" fill="#C2C2C2"/>
<rect x="333.992" y="83.0093" width="30.688" height="31.784" rx="5.48" fill="#C2C2C2"/>
<rect x="333.992" y="120.273" width="30.688" height="31.784" rx="5.48" fill="#C2C2C2"/>
<rect x="189.32" y="8.48114" width="30.688" height="31.784" rx="5.48" fill="#C2C2C2"/>
<rect x="189.32" y="45.7452" width="30.688" height="31.784" rx="5.48" fill="#C2C2C2"/>
<rect x="189.32" y="83.0093" width="30.688" height="31.784" rx="5.48" fill="#C2C2C2"/>
<rect x="189.32" y="120.273" width="30.688" height="31.784" rx="5.48" fill="#C2C2C2"/>
<rect x="478.664" y="8.48114" width="66.856" height="31.784" rx="5.48" fill="#C2C2C2"/>
<rect x="478.664" y="45.7452" width="30.688" height="31.784" rx="5.48" fill="#C2C2C2"/>
<rect x="442.496" y="120.273" width="103.024" height="31.784" rx="5.48" fill="#C2C2C2"/>
<rect x="478.664" y="157.537" width="30.688" height="31.784" rx="5.48" fill="#C2C2C2"/>
<rect x="80.816" y="8.48114" width="30.688" height="31.784" rx="5.48" fill="#C2C2C2"/>
<rect x="80.816" y="45.7452" width="30.688" height="31.784" rx="5.48" fill="#C2C2C2"/>
<rect x="80.816" y="83.0093" width="30.688" height="31.784" rx="5.48" fill="#C2C2C2"/>
<rect x="80.816" y="157.537" width="30.688" height="31.784" rx="5.48" fill="#C2C2C2"/>
<rect x="370.16" y="8.48114" width="30.688" height="31.784" rx="5.48" fill="#C2C2C2"/>
<rect x="370.16" y="45.7452" width="30.688" height="31.784" rx="5.48" fill="#C2C2C2"/>
<rect x="370.16" y="83.0093" width="30.688" height="31.784" rx="5.48" fill="#C2C2C2"/>
<rect x="370.16" y="120.273" width="30.688" height="31.784" rx="5.48" fill="#C2C2C2"/>
<rect x="370.16" y="157.537" width="30.688" height="31.784" rx="5.48" fill="#C2C2C2"/>
<rect x="225.488" y="8.48114" width="30.688" height="31.784" rx="5.48" fill="#C2C2C2"/>
<rect x="225.488" y="45.7452" width="30.688" height="31.784" rx="5.48" fill="#C2C2C2"/>
<rect x="225.488" y="83.0093" width="30.688" height="31.784" rx="5.48" fill="#C2C2C2"/>
<rect x="225.488" y="120.273" width="30.688" height="31.784" rx="5.48" fill="#C2C2C2"/>
<rect x="514.832" y="45.7452" width="30.688" height="31.784" rx="5.48" fill="#C2C2C2"/>
<rect x="478.664" y="83.0093" width="66.856" height="31.784" rx="5.48" fill="#C2C2C2"/>
<rect x="514.832" y="157.537" width="30.688" height="31.784" rx="5.48" fill="#C2C2C2"/>
<rect x="116.984" y="8.48114" width="30.688" height="31.784" rx="5.48" fill="#C2C2C2"/>
<rect x="116.984" y="45.7452" width="30.688" height="31.784" rx="5.48" fill="#C2C2C2"/>
<rect x="116.984" y="83.0093" width="30.688" height="31.784" rx="5.48" fill="#C2C2C2"/>
<rect x="116.984" y="120.273" width="30.688" height="31.784" rx="5.48" fill="#C2C2C2"/>
<rect x="116.984" y="157.537" width="30.688" height="31.784" rx="5.48" fill="#C2C2C2"/>
<rect x="406.328" y="8.48114" width="30.688" height="31.784" rx="5.48" fill="#C2C2C2"/>
<rect x="406.328" y="45.7452" width="30.688" height="31.784" rx="5.48" fill="#C2C2C2"/>
<rect x="406.328" y="83.0093" width="30.688" height="31.784" rx="5.48" fill="#C2C2C2"/>
<rect x="406.328" y="120.273" width="30.688" height="31.784" rx="5.48" fill="#C2C2C2"/>
<rect x="406.328" y="157.537" width="30.688" height="31.784" rx="5.48" fill="#C2C2C2"/>
<rect x="261.656" y="8.48114" width="30.688" height="31.784" rx="5.48" fill="#C2C2C2"/>
<rect x="261.656" y="45.7452" width="30.688" height="31.784" rx="5.48" fill="#C2C2C2"/>
<rect x="261.656" y="83.0093" width="30.688" height="31.784" rx="5.48" fill="#C2C2C2"/>
<rect x="261.656" y="120.273" width="30.688" height="31.784" rx="5.48" fill="#C2C2C2"/>
</svg>
