<svg width="916" height="832" viewBox="0 0 916 832" fill="none" xmlns="http://www.w3.org/2000/svg">
<g filter="url(#filter0_d_4_5)">
<rect x="-207" y="266" width="857" height="300" rx="10" fill="#2B2B2B" fill-opacity="0.6" shape-rendering="crispEdges"/>
<rect x="-208.292" y="264.708" width="859.584" height="302.584" rx="11.292" stroke="#4A4A4A" stroke-width="2.58398" shape-rendering="crispEdges"/>
</g>
<rect x="273.286" y="274.571" width="48" height="49.7143" rx="5" fill="#C2C2C2"/>
<rect x="254.143" y="332.859" width="48" height="49.7143" rx="5" fill="#C2C2C2"/>
<rect x="231.286" y="391.714" width="48" height="49.7143" rx="5" fill="#C2C2C2"/>
<rect x="255.858" y="448.857" width="48" height="49.7143" rx="5" fill="#C2C2C2"/>
<rect x="47" y="274.571" width="48" height="49.7143" rx="5" fill="#C2C2C2"/>
<rect x="27.8574" y="332.859" width="48" height="49.7143" rx="5" fill="#C2C2C2"/>
<rect x="4.42871" y="391.714" width="48" height="49.7143" rx="5" fill="#C2C2C2"/>
<rect x="29.5715" y="448.857" width="48" height="49.7143" rx="5" fill="#C2C2C2"/>
<rect x="27.8574" y="507.716" width="330.857" height="49.7143" rx="5" fill="#C2C2C2"/>
<rect x="499.572" y="274.571" width="48" height="49.7143" rx="5" fill="#C2C2C2"/>
<rect x="480.429" y="332.859" width="48" height="49.7143" rx="5" fill="#C2C2C2"/>
<rect x="457.572" y="391.714" width="48" height="49.7143" rx="5" fill="#C2C2C2"/>
<rect x="480.429" y="507.716" width="48" height="49.7143" rx="5" fill="#C2C2C2"/>
<rect x="329.857" y="274.571" width="48" height="49.7143" rx="5" fill="#C2C2C2"/>
<rect x="310.715" y="332.859" width="48" height="49.7143" rx="5" fill="#C2C2C2"/>
<rect x="287.857" y="391.714" width="48" height="49.7143" rx="5" fill="#C2C2C2"/>
<rect x="312.429" y="448.857" width="48" height="49.7143" rx="5" fill="#C2C2C2"/>
<rect x="103.571" y="274.571" width="48" height="49.7143" rx="5" fill="#C2C2C2"/>
<rect x="84.4287" y="332.859" width="48" height="49.7143" rx="5" fill="#C2C2C2"/>
<rect x="61.5718" y="391.714" width="48" height="49.7143" rx="5" fill="#C2C2C2"/>
<rect x="86.1431" y="448.857" width="48" height="49.7143" rx="5" fill="#C2C2C2"/>
<rect x="555.857" y="274.571" width="85.7143" height="50" rx="5" fill="#C2C2C2"/>
<rect x="537" y="332.859" width="48" height="49.7143" rx="5" fill="#C2C2C2"/>
<rect x="483" y="448.857" width="158.571" height="50" rx="5" fill="#C2C2C2"/>
<rect x="537" y="507.716" width="48" height="49.7143" rx="5" fill="#C2C2C2"/>
<rect x="386.429" y="274.571" width="48" height="49.7143" rx="5" fill="#C2C2C2"/>
<rect x="367.286" y="332.859" width="48" height="49.7143" rx="5" fill="#C2C2C2"/>
<rect x="344.429" y="391.714" width="48" height="49.7143" rx="5" fill="#C2C2C2"/>
<rect x="369.001" y="448.857" width="48" height="49.7143" rx="5" fill="#C2C2C2"/>
<rect x="367.286" y="507.429" width="104.286" height="50" rx="5" fill="#C2C2C2"/>
<rect x="160.143" y="274.571" width="48" height="49.7143" rx="5" fill="#C2C2C2"/>
<rect x="141" y="332.859" width="48" height="49.7143" rx="5" fill="#C2C2C2"/>
<rect x="118.143" y="391.714" width="48" height="49.7143" rx="5" fill="#C2C2C2"/>
<rect x="142.715" y="448.857" width="48" height="49.7143" rx="5" fill="#C2C2C2"/>
<rect x="593.572" y="332.859" width="48" height="49.7143" rx="5" fill="#C2C2C2"/>
<rect x="514.429" y="391.714" width="127.143" height="48.5715" rx="5" fill="#C2C2C2"/>
<rect x="593.572" y="507.716" width="48" height="49.7143" rx="5" fill="#C2C2C2"/>
<rect x="-9.57153" y="274.571" width="48" height="49.7143" rx="5" fill="#C2C2C2"/>
<rect x="-28.7141" y="332.859" width="48" height="49.7143" rx="5" fill="#C2C2C2"/>
<rect x="-26.9998" y="448.857" width="48" height="49.7143" rx="5" fill="#C2C2C2"/>
<rect x="-28.7141" y="507.716" width="48" height="49.7143" rx="5" fill="#C2C2C2"/>
<rect x="443" y="274.571" width="48" height="49.7143" rx="5" fill="#C2C2C2"/>
<rect x="423.857" y="332.859" width="48" height="49.7143" rx="5" fill="#C2C2C2"/>
<rect x="401" y="391.714" width="48" height="49.7143" rx="5" fill="#C2C2C2"/>
<rect x="425.572" y="448.857" width="48" height="49.7143" rx="5" fill="#C2C2C2"/>
<rect x="216.715" y="274.571" width="48" height="49.7143" rx="5" fill="#C2C2C2"/>
<rect x="197.572" y="332.859" width="48" height="49.7143" rx="5" fill="#C2C2C2"/>
<rect x="174.715" y="391.714" width="48" height="49.7143" rx="5" fill="#C2C2C2"/>
<rect x="199.286" y="448.857" width="48" height="49.7143" rx="5" fill="#C2C2C2"/>
<defs>
<filter id="filter0_d_4_5" x="-472.584" y="0.416016" width="1388.17" height="831.168" filterUnits="userSpaceOnUse" color-interpolation-filters="sRGB">
<feFlood flood-opacity="0" result="BackgroundImageFix"/>
<feColorMatrix in="SourceAlpha" type="matrix" values="0 0 0 0 0 0 0 0 0 0 0 0 0 0 0 0 0 0 127 0" result="hardAlpha"/>
<feMorphology radius="13" operator="dilate" in="SourceAlpha" result="effect1_dropShadow_4_5"/>
<feOffset/>
<feGaussianBlur stdDeviation="125"/>
<feComposite in2="hardAlpha" operator="out"/>
<feColorMatrix type="matrix" values="0 0 0 0 1 0 0 0 0 0.721569 0 0 0 0 0 0 0 0 0.48 0"/>
<feBlend mode="normal" in2="BackgroundImageFix" result="effect1_dropShadow_4_5"/>
<feBlend mode="normal" in="SourceGraphic" in2="effect1_dropShadow_4_5" result="shape"/>
</filter>
</defs>
</svg>
