<svg width="506" height="181" viewBox="0 0 506 181" fill="none" xmlns="http://www.w3.org/2000/svg">
<rect x="1.70801" y="1.70801" width="502.584" height="177.584" rx="11.292" fill="#2B2B2B" fill-opacity="0.6" stroke="#4A4A4A" stroke-width="2.58398"/>
<rect x="7.99988" y="7.99998" width="39.1667" height="29.1667" rx="5" fill="#C2C2C2"/>
<rect x="7.99988" y="42.0011" width="61" height="29" rx="5" fill="#C2C2C2"/>
<rect x="7.99988" y="76.3333" width="80" height="28.3333" rx="5" fill="#C2C2C2"/>
<rect x="7.99988" y="109.667" width="94.1667" height="29.1667" rx="5" fill="#C2C2C2"/>
<rect x="7.99988" y="144.001" width="28" height="29" rx="5" fill="#C2C2C2"/>
<rect x="283.167" y="7.99998" width="28" height="29" rx="5" fill="#C2C2C2"/>
<rect x="272" y="42.0011" width="28" height="29" rx="5" fill="#C2C2C2"/>
<rect x="258.667" y="76.3333" width="28" height="29" rx="5" fill="#C2C2C2"/>
<rect x="273" y="109.667" width="28" height="29" rx="5" fill="#C2C2C2"/>
<rect x="151.167" y="7.99998" width="28" height="29" rx="5" fill="#C2C2C2"/>
<rect x="140" y="42.0011" width="28" height="29" rx="5" fill="#C2C2C2"/>
<rect x="126.333" y="76.3333" width="28" height="29" rx="5" fill="#C2C2C2"/>
<rect x="141" y="109.667" width="28" height="29" rx="5" fill="#C2C2C2"/>
<rect x="140" y="144.001" width="193" height="29" rx="5" fill="#C2C2C2"/>
<rect x="415.167" y="7.99998" width="28" height="29" rx="5" fill="#C2C2C2"/>
<rect x="404" y="42.0011" width="28" height="29" rx="5" fill="#C2C2C2"/>
<rect x="390.667" y="76.3333" width="28" height="29" rx="5" fill="#C2C2C2"/>
<rect x="404" y="144.001" width="28" height="29" rx="5" fill="#C2C2C2"/>
<rect x="52.1665" y="7.99998" width="28" height="29" rx="5" fill="#C2C2C2"/>
<rect x="40.9999" y="144.001" width="28" height="29" rx="5" fill="#C2C2C2"/>
<rect x="316.166" y="7.99998" width="28" height="29" rx="5" fill="#C2C2C2"/>
<rect x="305" y="42.0011" width="28" height="29" rx="5" fill="#C2C2C2"/>
<rect x="291.667" y="76.3333" width="28" height="29" rx="5" fill="#C2C2C2"/>
<rect x="306" y="109.667" width="28" height="29" rx="5" fill="#C2C2C2"/>
<rect x="184.167" y="7.99998" width="28" height="29" rx="5" fill="#C2C2C2"/>
<rect x="173" y="42.0011" width="28" height="29" rx="5" fill="#C2C2C2"/>
<rect x="159.667" y="76.3333" width="28" height="29" rx="5" fill="#C2C2C2"/>
<rect x="174" y="109.667" width="28" height="29" rx="5" fill="#C2C2C2"/>
<rect x="448" y="7.99998" width="50" height="29.1667" rx="5" fill="#C2C2C2"/>
<rect x="437" y="42.0011" width="28" height="29" rx="5" fill="#C2C2C2"/>
<rect x="405.5" y="109.667" width="92.5" height="29.1667" rx="5" fill="#C2C2C2"/>
<rect x="437" y="144.001" width="28" height="29" rx="5" fill="#C2C2C2"/>
<rect x="85.1664" y="7.99998" width="28" height="29" rx="5" fill="#C2C2C2"/>
<rect x="73.9999" y="42.0011" width="28" height="29" rx="5" fill="#C2C2C2"/>
<rect x="73.9999" y="144.001" width="28" height="29" rx="5" fill="#C2C2C2"/>
<rect x="349.167" y="7.99998" width="28" height="29" rx="5" fill="#C2C2C2"/>
<rect x="338" y="42.0011" width="28" height="29" rx="5" fill="#C2C2C2"/>
<rect x="324.667" y="76.3333" width="28" height="29" rx="5" fill="#C2C2C2"/>
<rect x="339" y="109.667" width="28" height="29" rx="5" fill="#C2C2C2"/>
<rect x="338" y="143.833" width="60.8333" height="29.1667" rx="5" fill="#C2C2C2"/>
<rect x="217.167" y="7.99998" width="28" height="29" rx="5" fill="#C2C2C2"/>
<rect x="206" y="42.0011" width="28" height="29" rx="5" fill="#C2C2C2"/>
<rect x="192.667" y="76.3333" width="28" height="29" rx="5" fill="#C2C2C2"/>
<rect x="207" y="109.667" width="28" height="29" rx="5" fill="#C2C2C2"/>
<rect x="470" y="42.0011" width="28" height="29" rx="5" fill="#C2C2C2"/>
<rect x="423.833" y="76.3333" width="74.1667" height="28.3333" rx="5" fill="#C2C2C2"/>
<rect x="470" y="144.001" width="28" height="29" rx="5" fill="#C2C2C2"/>
<rect x="118.166" y="7.99998" width="28" height="29" rx="5" fill="#C2C2C2"/>
<rect x="107" y="42.0011" width="28" height="29" rx="5" fill="#C2C2C2"/>
<rect x="92.9999" y="76.3333" width="28" height="29" rx="5" fill="#C2C2C2"/>
<rect x="108" y="109.667" width="28" height="29" rx="5" fill="#C2C2C2"/>
<rect x="107" y="144.001" width="28" height="29" rx="5" fill="#C2C2C2"/>
<rect x="382.167" y="7.99998" width="28" height="29" rx="5" fill="#C2C2C2"/>
<rect x="371" y="42.0011" width="28" height="29" rx="5" fill="#C2C2C2"/>
<rect x="357.667" y="76.3333" width="28" height="29" rx="5" fill="#C2C2C2"/>
<rect x="372" y="109.667" width="28" height="29" rx="5" fill="#C2C2C2"/>
<rect x="250.167" y="7.99998" width="28" height="29" rx="5" fill="#C2C2C2"/>
<rect x="239" y="42.0011" width="28" height="29" rx="5" fill="#C2C2C2"/>
<rect x="225.667" y="76.3333" width="28" height="29" rx="5" fill="#C2C2C2"/>
<rect x="240" y="109.667" width="28" height="29" rx="5" fill="#C2C2C2"/>
</svg>
