<svg width="639" height="663" viewBox="0 0 639 663" fill="none" xmlns="http://www.w3.org/2000/svg">
<g filter="url(#filter0_d_8_115)">
<path fill-rule="evenodd" clip-rule="evenodd" d="M310.072 134.296C308.489 133.346 306.511 133.346 304.927 134.296L208.469 192.171C206.963 193.075 206.042 194.702 206.042 196.458C206.042 196.555 206.044 196.651 206.05 196.747C206.044 196.843 206.042 196.94 206.042 197.037V299.732L112.09 356.103C111.82 356.258 111.565 356.439 111.33 356.641C111.143 356.801 110.969 356.974 110.81 357.157C110.046 358.035 109.583 359.182 109.583 360.438V466.542C109.583 468.298 110.505 469.926 112.011 470.829L208.459 528.698C208.48 528.71 208.5 528.723 208.521 528.735C209.535 529.327 210.674 529.522 211.755 529.366C212.079 529.319 212.399 529.24 212.71 529.13C213.056 529.008 213.39 528.848 213.703 528.651L307.5 472.373L401.363 528.691C401.394 528.709 401.424 528.727 401.455 528.745L401.495 528.768L401.54 528.793C402.551 529.353 403.679 529.525 404.745 529.354C405.066 529.303 405.383 529.221 405.691 529.107C406.013 528.988 406.324 528.836 406.617 528.652L502.989 470.829C504.495 469.926 505.416 468.298 505.416 466.542V360.527C505.434 359.621 505.205 358.699 504.704 357.865C504.248 357.105 503.622 356.51 502.904 356.099L408.958 299.732V196.548C408.975 195.642 408.746 194.72 408.246 193.886C407.79 193.126 407.164 192.531 406.446 192.12L310.072 134.296ZM398.958 299.732V205.289L312.5 257.164V351.607L398.958 299.732ZM302.5 351.606V257.164L216.042 205.289V299.731L302.5 351.606ZM394.24 196.458L307.5 144.414L220.76 196.458L307.5 248.502L394.24 196.458ZM312.5 463.711V369.269L398.958 421.143V515.586L312.5 463.711ZM119.583 369.268V463.711L206.042 515.586V421.143L119.583 369.268ZM211.042 308.393L298.057 360.603L211.749 412.906L124.302 360.438L211.042 308.393ZM216.042 515.586V421.997L302.5 369.603V463.711L216.042 515.586ZM490.698 360.438L403.958 308.393L317.218 360.438L403.958 412.482L490.698 360.438ZM408.958 421.144L495.416 369.269V463.711L408.958 515.586V421.144Z" fill="#FFB800"/>
</g>
<defs>
<filter id="filter0_d_8_115" x="-23.4165" y="0.583374" width="661.834" height="661.834" filterUnits="userSpaceOnUse" color-interpolation-filters="sRGB">
<feFlood flood-opacity="0" result="BackgroundImageFix"/>
<feColorMatrix in="SourceAlpha" type="matrix" values="0 0 0 0 0 0 0 0 0 0 0 0 0 0 0 0 0 0 127 0" result="hardAlpha"/>
<feMorphology radius="13" operator="dilate" in="SourceAlpha" result="effect1_dropShadow_8_115"/>
<feOffset/>
<feGaussianBlur stdDeviation="60"/>
<feComposite in2="hardAlpha" operator="out"/>
<feColorMatrix type="matrix" values="0 0 0 0 1 0 0 0 0 0.721569 0 0 0 0 0 0 0 0 0.7 0"/>
<feBlend mode="normal" in2="BackgroundImageFix" result="effect1_dropShadow_8_115"/>
<feBlend mode="normal" in="SourceGraphic" in2="effect1_dropShadow_8_115" result="shape"/>
</filter>
</defs>
</svg>
